Coordinates
version=1
nRows=17
nColumns=40
inDegrees=yes

Units are S.I. units (second, meters, Newtons, ...)
Angles are in degrees.

endheader
time	pelvis_tilt	pelvis_list	pelvis_rotation	pelvis_tx	pelvis_ty	pelvis_tz	hip_flexion_r	hip_adduction_r	hip_rotation_r	knee_angle_r	knee_angle_r_beta	ankle_angle_r	subtalar_angle_r	mtp_angle_r	hip_flexion_l	hip_adduction_l	hip_rotation_l	knee_angle_l	knee_angle_l_beta	ankle_angle_l	subtalar_angle_l	mtp_angle_l	lumbar_extension	lumbar_bending	lumbar_rotation	arm_flex_r	arm_add_r	arm_rot_r	elbow_flex_r	pro_sup_r	wrist_flex_r	wrist_dev_r	arm_flex_l	arm_add_l	arm_rot_l	elbow_flex_l	pro_sup_l	wrist_flex_l	wrist_dev_l
     57.62000000	     -5.01501494	     -3.69076534	      4.00291932	      1.00666033	      0.92328253	      0.41213410	      1.14451839	     -2.19897889	    -17.00857869	     27.62004224	     27.62004224	     12.31884122	     -6.93153276	    -13.16149138	     25.85764077	     -2.77929302	     -2.34957371	     25.62426607	     25.62426607	      8.29446499	    -14.68701518	      6.69754334	     -6.17404275	      5.21530473	      4.19131656	     26.92467525	    -15.07196246	     -7.08224253	     88.01425225	     44.67062633	      0.00000000	      0.00000000	     -3.23829186	     -6.90378653	      3.05188507	     27.52344528	     45.03353198	      0.00000000	      0.00000000
     57.63257143	     -5.01987721	     -3.66220009	      3.75660272	      1.00680218	      0.92463993	      0.40954190	      2.66150345	     -2.95528564	    -16.27005145	     31.17737136	     31.17737136	     10.82514193	     -8.72764824	    -13.69308600	     25.00929884	     -2.71894593	     -2.74775473	     25.17044845	     25.17044845	      8.69637421	    -14.36344418	      6.40788669	     -6.18039621	      5.29401641	      4.31591765	     25.09548683	    -14.94394916	     -7.07102683	     85.87028449	     44.74605411	      0.00000000	      0.00000000	     -2.01190458	     -6.91288478	      2.72619016	     28.43985101	     45.11797009	      0.00000000	      0.00000000
     57.64514286	     -4.97144908	     -3.63652735	      3.50189622	      1.00679419	      0.92583660	      0.40712712	      4.27955083	     -3.63329867	    -15.37121812	     34.85991057	     34.85991057	      8.96988484	    -10.89892912	    -14.31620503	     24.12479790	     -2.69180738	     -3.22274558	     24.73982608	     24.73982608	      9.05045922	    -13.95456191	      5.88209336	     -6.26265484	      5.36940391	      4.18615067	     23.63208746	    -14.52119434	     -7.11041382	     83.00404411	     44.85206146	      0.00000000	      0.00000000	     -0.96657716	     -7.01597136	      2.25605649	     29.76607690	     45.22184402	      0.00000000	      0.00000000
     57.65771429	     -4.96446663	     -3.52778191	      3.25303397	      1.00659498	      0.92674523	      0.40474145	      6.11652574	     -4.47010687	    -14.62877947	     38.78289424	     38.78289424	      7.21077866	    -12.45606077	    -14.33371907	     23.29367924	     -2.55901366	     -3.70263236	     24.31432719	     24.31432719	      9.41371644	    -13.55251727	      5.56824694	     -6.36050653	      5.35605798	      4.18755590	     21.80395985	    -14.35240375	     -6.90833475	     80.99401298	     44.90872190	      0.00000000	      0.00000000	      0.30592347	     -7.15610665	      2.04439158	     30.79587048	     45.27725339	      0.00000000	      0.00000000
     57.67028571	     -4.90244301	     -3.43012633	      2.99388093	      1.00623233	      0.92740336	      0.40258832	      8.00967074	     -5.17711993	    -13.72928446	     42.70718680	     42.70718680	      5.39600146	    -14.15878813	    -13.92729385	     22.50466724	     -2.45810815	     -4.16422487	     24.05085210	     24.05085210	      9.82911114	    -13.20699261	      5.18149693	     -6.51795807	      5.32368342	      4.22011420	     20.00820823	    -14.17218762	     -6.75955373	     78.72985599	     44.97425766	      0.00000000	      0.00000000	      1.69059556	     -7.34922063	      1.85264468	     31.95600742	     45.32906316	      0.00000000	      0.00000000
     57.68285714	     -4.85806150	     -3.52693162	      2.77916013	      1.00572138	      0.92787354	      0.40071625	     10.06343634	     -5.47803517	    -12.66824909	     46.69200991	     46.69200991	      4.53168753	    -15.32745151	    -10.31254622	     21.78653822	     -2.57273620	     -4.54885890	     23.79713516	     23.79713516	      9.89899065	    -12.87895192	      3.83414592	     -6.53784703	      5.46715884	      3.26087081	     19.69080796	    -13.31718818	     -5.99622069	     73.12702732	     45.15656250	      0.00000000	      0.00000000	      1.83185015	     -7.93308493	      1.01174601	     35.26638266	     45.48713467	      0.00000000	      0.00000000
     57.69542857	     -4.79327643	     -3.48222585	      2.52132715	      1.00503442	      0.92818246	      0.39886309	     12.16125597	     -5.92762247	    -11.66967039	     50.55860076	     50.55860076	      3.63333804	    -16.09930420	     -7.24972874	     21.10620956	     -2.55499430	     -5.03486377	     23.68345190	     23.68345190	     10.27321930	    -12.46192920	      3.23034775	     -6.70630793	      5.51260409	      3.07368758	     18.48013346	    -12.90062169	     -5.98759943	     69.59090572	     45.27957224	      0.00000000	      0.00000000	      3.05701075	     -8.22566883	      0.84355219	     36.79458544	     45.55559119	      0.00000000	      0.00000000
     57.70800000	     -4.74794804	     -3.35584829	      2.25791625	      1.00426333	      0.92836489	      0.39704581	     14.19745906	     -6.41216751	    -10.73823457	     53.98639788	     53.98639788	      2.18995591	    -16.96932621	     -6.51962515	     20.44039386	     -2.39951473	     -5.38055917	     23.54646230	     23.54646230	     10.69999260	    -12.30106939	      2.99286076	     -6.90373565	      5.46451263	      3.23053120	     16.45181868	    -13.00540999	     -5.72965233	     67.67764826	     45.32688323	      0.00000000	      0.00000000	      4.66352609	     -8.48010384	      0.70940746	     37.85081755	     45.60036939	      0.00000000	      0.00000000
     57.72057143	     -4.61601136	     -3.24826628	      2.03189754	      1.00343119	      0.92862046	      0.39544771	     16.10735923	     -6.76916349	     -9.88137306	     57.10548330	     57.10548330	      1.07518451	    -17.59441545	     -5.66033692	     19.74230773	     -2.27703476	     -5.68752489	     23.49145574	     23.49145574	     11.08363945	    -12.13007606	      2.74835825	     -7.19456045	      5.40466769	      3.33113394	     14.47262951	    -12.92994261	     -5.47872193	     65.53436319	     45.38186749	      0.00000000	      0.00000000	      6.38129523	     -8.82492155	      0.59823514	     38.95445489	     45.64243934	      0.00000000	      0.00000000
     57.73314286	     -4.55427717	     -3.35735342	      1.74568294	      1.00256824	      0.92892174	      0.39417059	     18.24248041	     -6.65033914	     -8.84792887	     60.19106932	     60.19106932	      1.96857838	    -17.26169691	      0.49810236	     19.07461461	     -2.43817654	     -6.11461489	     23.34481064	     23.34481064	     11.46351589	    -11.75736092	      2.08826569	     -7.24613269	      5.56170919	      2.84090503	     14.48462075	    -12.28141373	     -5.45024551	     58.51046416	     45.61711773	      0.00000000	      0.00000000	      7.19954203	     -9.51861790	      1.11790707	     41.17592466	     45.62794174	      0.00000000	      0.00000000
     57.74571429	     -4.44778298	     -3.30923629	      1.44995714	      1.00172254	      0.92931853	      0.39287468	     20.11778339	     -6.73625347	     -8.03017405	     62.59791136	     62.59791136	      1.80247964	    -17.27580554	      2.26211760	     18.31704297	     -2.36591128	     -6.37580616	     23.12720039	     23.12720039	     11.81111553	    -11.71881010	      1.87322734	     -7.47124762	      5.57014832	      2.82041965	     13.07452739	    -12.28436024	     -4.83853898	     54.93201609	     45.69989045	      0.00000000	      0.00000000	      8.52782362	     -9.94123858	      1.04131700	     42.87601697	     45.68879538	      0.00000000	      0.00000000
     57.75828571	     -4.39122289	     -3.23770816	      1.09645021	      1.00082803	      0.92975638	      0.39174990	     21.95348695	     -6.77640528	     -7.26786756	     64.49260789	     64.49260789	      1.34343166	    -17.39871096	      2.36996635	     17.56182445	     -2.27722071	     -6.71369481	     22.81925567	     22.81925567	     12.16425235	    -11.61315907	      1.78000861	     -7.69114496	      5.54864655	      3.14840666	     11.02733209	    -12.44576606	     -4.58308983	     52.84053312	     45.75045966	      0.00000000	      0.00000000	     10.19194812	    -10.18681884	      0.83849430	     43.97677687	     45.74054739	      0.00000000	      0.00000000
     57.77085714	     -4.27627050	     -3.22155673	      0.72270792	      1.00005534	      0.93042910	      0.39082858	     23.61387811	     -6.68850440	     -6.63076214	     65.90338252	     65.90338252	      1.13984339	    -17.44880090	      2.51425431	     16.67537235	     -2.24395981	     -7.05311799	     22.39878157	     22.39878157	     12.50696842	    -11.52186288	      1.70787085	     -7.91053848	      5.57225519	      3.61119362	      9.13036989	    -12.61111386	     -4.35526481	     50.03354155	     45.82895359	      0.00000000	      0.00000000	     11.86910032	    -10.33713834	      0.69668798	     45.16793311	     45.78714319	      0.00000000	      0.00000000
     57.78342857	     -4.12241094	     -3.35611520	      0.36346856	      0.99925279	      0.93139049	      0.39015538	     25.09503781	     -6.38445099	     -6.18096820	     66.79364677	     66.79364677	      1.30117064	    -17.29554603	      3.26093956	     15.72824088	     -2.37035853	     -7.30447871	     21.91708404	     21.91708404	     12.70125722	    -11.45925339	      1.46856578	     -8.11171866	      5.74414878	      3.09762263	      9.42609637	    -11.95790694	     -4.33357252	     42.70489840	     46.08289938	      0.00000000	      0.00000000	     12.91001276	    -11.09552170	      0.80118072	     46.52774352	     45.82525722	      0.00000000	      0.00000000
     57.79600000	     -4.02854506	     -3.37453142	     -0.03607031	      0.99844337	      0.93228564	      0.38954530	     26.55412057	     -6.17991545	     -5.77097113	     67.22879625	     67.22879625	      1.31273213	    -17.25327576	      3.21681287	     14.74943288	     -2.34581632	     -7.58794617	     21.26788347	     21.26788347	     12.88719292	    -11.40062494	      1.38319670	     -8.33055192	      5.79650044	      3.00494363	      8.48202650	    -11.71903716	     -4.45795520	     38.45558950	     46.21904564	      0.00000000	      0.00000000	     13.93117331	    -11.47576572	      0.08643599	     48.41023666	     45.95636783	      0.00000000	      0.00000000
     57.80857143	     -3.94778338	     -3.44255107	     -0.45924578	      0.99763223	      0.93323368	      0.38911991	     27.88866562	     -5.87616039	     -5.45619915	     67.15052051	     67.15052051	      1.35120792	    -17.18845327	      3.11886423	     13.75261905	     -2.38236650	     -7.93490622	     20.55901224	     20.55901224	     13.10462451	    -11.27646237	      1.45633787	     -8.55433836	      5.91271575	      3.41266234	      6.47578420	    -11.91878642	     -4.38777652	     36.51865230	     46.27278947	      0.00000000	      0.00000000	     15.41358953	    -11.63959386	     -0.26154212	     49.60550944	     46.02095267	      0.00000000	      0.00000000
     57.82114286	     -3.86701857	     -3.55225302	     -0.83216031	      0.99682268	      0.93420220	      0.38883054	     29.04419395	     -5.52030341	     -5.30053911	     66.57046205	     66.57046205	      1.47573472	    -17.14813416	      3.02237357	     12.72661517	     -2.44893698	     -8.23047674	     19.77464725	     19.77464725	     13.25795346	    -11.09296574	      1.51961070	     -8.75001662	      6.10658963	      3.82665685	      4.65351281	    -12.04684117	     -4.36755190	     34.15089163	     46.34949402	      0.00000000	      0.00000000	     16.83362669	    -11.81730292	     -0.61669663	     50.92672342	     46.08641345	      0.00000000	      0.00000000
